<?xml version="1.0" encoding="UTF-8"?>
<svg id="a" data-name="Layer 1" xmlns="http://www.w3.org/2000/svg" width="6.82in" height="9.4in" viewBox="0 0 490.7 676.79">
  <g id="b" data-name="page-fold">
    <path id="c" data-name="page-fold-hor-1" d="M173.33,490.71h144.03" style="fill: none; stroke: #000; stroke-miterlimit: 4; stroke-width: .75px;"/>
    <path id="d" data-name="page-fold-hor-2" d="M317.36,346.68h-144.03" style="fill: none; stroke: #000; stroke-miterlimit: 4; stroke-width: .75px;"/>
    <path id="e" data-name="page-fold-glue-hor-left" d="M29.3,202.65h432.1" style="fill: none; stroke: #000; stroke-miterlimit: 4; stroke-width: .75px;"/>
    <path id="f" data-name="page-fold-glue-vert-left" d="M461.4,202.65V58.61" style="fill: none; stroke: #000; stroke-miterlimit: 4; stroke-width: .75px;"/>
    <path id="g" data-name="page-fold-dust-r" d="M461.4,58.61h-144.03" style="fill: none; stroke: #000; stroke-miterlimit: 4; stroke-width: .75px;"/>
    <path id="h" data-name="page-fold-dust-l" d="M173.33,58.61H29.3" style="fill: none; stroke: #000; stroke-miterlimit: 4; stroke-width: .75px;"/>
    <path id="i" data-name="page-fold-glue-vert-right" d="M29.3,58.61v144.03" style="fill: none; stroke: #000; stroke-miterlimit: 4; stroke-width: .75px;"/>
    <path id="j" data-name="page-fold-ver-l" d="M173.33,202.65V58.61" style="fill: none; stroke: #000; stroke-miterlimit: 4; stroke-width: .75px;"/>
    <path id="k" data-name="page-fold-ver-r" d="M317.36,58.61v144.03" style="fill: none; stroke: #000; stroke-miterlimit: 4; stroke-width: .75px;"/>
    <path id="l" data-name="page-fold-tuck-fold" d="M190.39,631.86h109.92" style="fill: none; stroke: #000; stroke-miterlimit: 4; stroke-width: .75px;"/>
  </g>
  <g id="m" data-name="page-cut">
    <path id="n" data-name="page-cut-tuck" d="M173.33,634.75h14.18l2.88-2.88" style="fill: none; stroke: blue; stroke-miterlimit: 4; stroke-width: 2px;"/>
    <path id="o" data-name="page-cut-tuck-slit2" d="M300.31,631.86l2.88,2.88h14.17" style="fill: none; stroke: blue; stroke-miterlimit: 4; stroke-width: 2px;"/>
    <path id="p" data-name="page-cut-tuck-tuck" d="M174.77,634.75v12.75c0,15.63,12.68,28.3,28.31,28.3h84.55c15.63,0,28.29-12.67,28.3-28.3v-12.75" style="fill: none; stroke: blue; stroke-miterlimit: 4; stroke-width: 2px;"/>
    <path id="q" data-name="page-cut-front-left" d="M317.36,634.75V202.65" style="fill: none; stroke: blue; stroke-miterlimit: 4; stroke-width: 2px;"/>
    <path id="r" data-name="page-cut-left" d="M317.36,202.65h1.44l4.99,28.31h137.6v-29.75l28.31-4.99V65.04l-28.31-4.99v-1.44" style="fill: none; stroke: blue; stroke-miterlimit: 4; stroke-width: 2px;"/>
    <path id="s" data-name="page-cut-north" d="M245.35,58.61h-73.44v-11.33l-5.67-5.67L155.37,1H42.1l-4.3,49.11-8.5,8.5" style="fill: none; stroke: blue; stroke-miterlimit: 4; stroke-width: 2px;"/>
    <path id="t" data-name="page-cut-north" d="M461.4,58.61l-8.5-8.5-4.3-49.11h-113.27l-10.87,40.61-5.67,5.67v11.33h-73.44,6.75" style="fill: none; stroke: blue; stroke-miterlimit: 4; stroke-width: 2px;"/>
    <path id="u" data-name="page-cut-right" d="M29.3,58.61v1.44l-28.3,4.99v131.17l28.3,4.99v29.75h137.6l4.99-28.31h1.44" style="fill: none; stroke: blue; stroke-miterlimit: 4; stroke-width: 2px;"/>
    <path id="v" data-name="page-cut-front-right" d="M173.33,202.65v432.1" style="fill: none; stroke: blue; stroke-miterlimit: 4; stroke-width: 2px;"/>
  </g>
  <g id="w" data-name="Grid">
    <line x1="461.4" y1="106.61" x2="29.3" y2="106.61" style="fill: none; stroke: #000; stroke-miterlimit: 4;"/>
    <line x1="461.4" y1="154.63" x2="29.3" y2="154.63" style="fill: none; stroke: #000; stroke-miterlimit: 4;"/>
    <line x1="77.3" y1="58.61" x2="77.3" y2="202.65" style="fill: none; stroke: #000; stroke-miterlimit: 4;"/>
    <line x1="125.32" y1="58.61" x2="125.32" y2="202.65" style="fill: none; stroke: #000; stroke-miterlimit: 4;"/>
    <line x1="365.37" y1="58.61" x2="365.37" y2="202.65" style="fill: none; stroke: #000; stroke-miterlimit: 4;"/>
    <line x1="413.39" y1="58.61" x2="413.39" y2="202.65" style="fill: none; stroke: #000; stroke-miterlimit: 4;"/>
    <line x1="221.34" y1="58.61" x2="221.34" y2="631.86" style="fill: none; stroke: #000; stroke-miterlimit: 4;"/>
    <line x1="269.35" y1="58.61" x2="269.35" y2="631.86" style="fill: none; stroke: #000; stroke-miterlimit: 4;"/>
    <line x1="317.36" y1="249.95" x2="173.33" y2="249.95" style="fill: none; stroke: #000; stroke-miterlimit: 4;"/>
    <line x1="317.36" y1="297.96" x2="173.33" y2="297.96" style="fill: none; stroke: #000; stroke-miterlimit: 4;"/>
    <line x1="316.49" y1="394.69" x2="172.46" y2="394.69" style="fill: none; stroke: #000; stroke-miterlimit: 4;"/>
    <line x1="316.49" y1="442.7" x2="172.46" y2="442.7" style="fill: none; stroke: #000; stroke-miterlimit: 4;"/>
    <line x1="316.49" y1="539.43" x2="172.46" y2="539.43" style="fill: none; stroke: #000; stroke-miterlimit: 4;"/>
    <line x1="316.49" y1="587.44" x2="172.46" y2="587.44" style="fill: none; stroke: #000; stroke-miterlimit: 4;"/>
  </g>
  <g id="x" data-name="Numbers2">
    <path d="M309.51,453.14v.58c-1.33.22-2.3.74-2.92,1.54-.26.35-.45.79-.56,1.33-.11.53-.16,1.29-.16,2.28v13.29c0,1.25.09,2.19.28,2.82.19.63.53,1.08,1.03,1.37s1.24.48,2.23.58v.58l-7.21,1.79v-20.43c0-1.12-.06-1.93-.19-2.44s-.36-.97-.7-1.37c-.62-.69-1.54-1.13-2.76-1.33v-.58h10.96ZM306.75,454.1h-4.63l.62.54c.23.19.41.36.53.51.12.15.21.3.25.46.05.16.07.37.07.63v21.95l3.85-.94-1.24-.83s-.08-.06-.11-.09l-.38-.28c-.28-.26-.42-.66-.43-1.2v-.62l-.02-.32v-17.04s.02-.26.02-.62.05-.66.15-.85c.1-.19.33-.44.69-.75l.62-.54Z" style="fill: none; stroke: red; stroke-miterlimit: 4;"/>
    <path d="M296.95,465.94c0,2.43-.41,4.68-1.24,6.75-.82,2.07-1.94,3.71-3.36,4.91s-2.96,1.81-4.63,1.81-3.2-.6-4.61-1.81-2.53-2.85-3.35-4.92c-.82-2.07-1.24-4.32-1.24-6.74s.41-4.66,1.24-6.73c.83-2.07,1.94-3.71,3.34-4.91,1.4-1.21,2.93-1.81,4.59-1.81s3.23.6,4.65,1.79c1.42,1.2,2.54,2.83,3.37,4.9s1.25,4.33,1.25,6.76ZM285.25,453.89c-3.39,2.72-5.09,6.72-5.09,12.01,0,1.28.11,2.52.33,3.74.22,1.21.53,2.32.92,3.31.39.99.88,1.9,1.47,2.73.59.83,1.25,1.5,1.98,2.03-.97-1.2-1.68-2.65-2.12-4.34-.55-2.1-.82-4.53-.82-7.27,0-3.19.34-5.91,1.01-8.14.16-.53.34-1.01.55-1.45.21-.44.46-.87.75-1.29.29-.42.62-.86,1.01-1.32ZM292.96,466.22c0-1.92-.12-3.65-.36-5.21-.24-1.55-.59-2.9-1.06-4.04-.47-1.14-1.03-2-1.68-2.59s-1.37-.88-2.15-.88c-1.29,0-2.42.86-3.38,2.59-.4.71-.73,1.56-1,2.53-.26.97-.46,2.08-.6,3.33-.14,1.25-.21,2.63-.21,4.16,0,2.53.21,4.75.63,6.65.42,1.9,1.03,3.37,1.82,4.39s1.71,1.53,2.76,1.53c.78,0,1.49-.29,2.13-.88.64-.59,1.19-1.44,1.66-2.57.47-1.12.82-2.43,1.06-3.92.24-1.49.37-3.19.37-5.09ZM291.07,454.1c1.14,1.27,2.01,2.93,2.61,4.98.6,2.05.9,4.39.9,7.01s-.29,4.85-.87,6.8c-.58,1.95-1.44,3.59-2.58,4.92,1.09-.79,2.03-1.79,2.82-3,.79-1.21,1.39-2.56,1.81-4.06.42-1.5.63-3.06.63-4.69,0-1.72-.2-3.32-.61-4.82s-1.01-2.86-1.82-4.1c-.81-1.23-1.76-2.25-2.86-3.05Z" style="fill: none; stroke: red; stroke-miterlimit: 4;"/>
    <path d="M255.2,453.14v.58c-1.33.22-2.3.74-2.92,1.54-.26.35-.45.79-.56,1.33-.11.53-.16,1.29-.16,2.28v13.29c0,1.25.09,2.19.28,2.82.19.63.53,1.08,1.03,1.37s1.24.48,2.23.58v.58l-7.21,1.79v-20.43c0-1.12-.06-1.93-.19-2.44s-.36-.97-.7-1.37c-.62-.69-1.54-1.13-2.76-1.33v-.58h10.96ZM252.44,454.1h-4.63l.62.54c.23.19.41.36.53.51.12.15.21.3.25.46.05.16.07.37.07.63v21.95l3.85-.94-1.24-.83s-.08-.06-.11-.09l-.38-.28c-.28-.26-.42-.66-.43-1.2v-.62l-.02-.32v-17.04s.02-.26.02-.62.05-.66.15-.85c.1-.19.33-.44.69-.75l.62-.54Z" style="fill: none; stroke: red; stroke-miterlimit: 4;"/>
    <path d="M242.81,453.14v.58c-1.33.22-2.3.74-2.92,1.54-.26.35-.45.79-.55,1.33-.11.53-.16,1.29-.16,2.28v13.29c0,1.25.09,2.19.28,2.82.19.63.53,1.08,1.03,1.37.5.29,1.25.48,2.23.58v.58l-7.22,1.79v-20.43c0-1.12-.06-1.93-.19-2.44-.13-.51-.36-.97-.7-1.37-.62-.69-1.54-1.13-2.76-1.33v-.58h10.96ZM240.05,454.1h-4.63l.62.54c.23.19.41.36.53.51.12.15.21.3.25.46.05.16.07.37.07.63v21.95l3.85-.94-1.24-.83s-.08-.06-.11-.09l-.38-.28c-.27-.26-.42-.66-.43-1.2v-.62l-.02-.32v-17.04s.02-.26.02-.62.05-.66.15-.85c.1-.19.33-.44.69-.75l.62-.54Z" style="fill: none; stroke: red; stroke-miterlimit: 4;"/>
    <path d="M208.92,453.14v.58c-1.33.22-2.3.74-2.92,1.54-.26.35-.45.79-.55,1.33-.11.53-.16,1.29-.16,2.28v13.29c0,1.25.09,2.19.28,2.82.19.63.53,1.08,1.03,1.37.5.29,1.25.48,2.23.58v.58l-7.22,1.79v-20.43c0-1.12-.06-1.93-.19-2.44-.13-.51-.36-.97-.7-1.37-.62-.69-1.54-1.13-2.76-1.33v-.58h10.96ZM206.16,454.1h-4.63l.62.54c.23.19.41.36.53.51.12.15.21.3.25.46.05.16.07.37.07.63v21.95l3.85-.94-1.24-.83s-.08-.06-.11-.09l-.38-.28c-.27-.26-.42-.66-.43-1.2v-.62l-.02-.32v-17.04s.02-.26.02-.62.05-.66.15-.85c.1-.19.33-.44.69-.75l.62-.54Z" style="fill: none; stroke: red; stroke-miterlimit: 4;"/>
    <path d="M195.1,457.03h-5.5c-1.4,0-2.53.24-3.39.71-.87.48-1.63,1.27-2.3,2.37h-.52l1.52-6.97h12.45l.02.77c-.48,1.23-1.04,2.41-1.68,3.55-.64,1.14-1.59,2.6-2.82,4.38-.53.78-.98,1.43-1.34,1.96s-.65.94-.85,1.23c-1.07,1.6-1.83,3-2.29,4.19-.46,1.19-.69,2.39-.69,3.61,0,1.03.16,1.98.47,2.86.31.88.74,1.56,1.29,2.06s1.14.74,1.78.74c1.32,0,2.01-.98,2.06-2.93l.03-1c.04-1.53.54-2.29,1.51-2.29.47,0,.85.2,1.16.59.31.39.46.91.46,1.53,0,.89-.27,1.71-.81,2.45s-1.28,1.34-2.21,1.78c-.94.44-1.95.66-3.05.66-1.22,0-2.33-.29-3.34-.86-1.01-.58-1.8-1.38-2.36-2.4-.57-1.02-.85-2.17-.85-3.43,0-.9.14-1.75.42-2.55.28-.8.75-1.64,1.4-2.52.65-.88,1.5-1.84,2.56-2.87l2.57-2.52c1.97-1.9,3.41-3.61,4.33-5.11ZM192.18,461.86c-1.3,1.39-2.51,2.78-3.63,4.17-1.19,1.49-2.02,2.72-2.47,3.7-.45.98-.68,2-.68,3.08,0,1,.17,1.89.5,2.68.33.78.81,1.43,1.44,1.94.62.51,1.35.83,2.17.96-.78-.53-1.38-1.26-1.78-2.21-.41-.95-.61-2.06-.61-3.35,0-1.01.15-2.02.46-3.01s.79-2.05,1.44-3.19c.93-1.59,1.99-3.18,3.17-4.77ZM186.09,454.08l-.56,2.5c.87-.61,2-.92,3.39-.92h7.04c.26-.56.5-1.09.7-1.58h-10.58ZM193.57,478.02c1.53-1.01,2.3-2.24,2.3-3.68,0-.33-.06-.59-.17-.8-.12-.21-.27-.31-.46-.31-.38,0-.57.34-.57,1.01,0,.94-.08,1.68-.24,2.21-.16.53-.44,1.06-.86,1.57Z" style="fill: none; stroke: red; stroke-miterlimit: 4;"/>
    <path d="M309.51,406.96v.58c-1.33.22-2.3.74-2.92,1.54-.26.35-.45.79-.56,1.33-.11.53-.16,1.29-.16,2.28v13.29c0,1.25.09,2.19.28,2.82.19.63.53,1.08,1.03,1.37s1.24.48,2.23.58v.58l-7.21,1.79v-20.43c0-1.12-.06-1.93-.19-2.44s-.36-.97-.7-1.37c-.62-.69-1.54-1.13-2.76-1.33v-.58h10.96ZM306.75,407.92h-4.63l.62.54c.23.19.41.36.53.51.12.15.21.3.25.46.05.16.07.37.07.63v21.95l3.85-.94-1.24-.83s-.08-.06-.11-.09l-.38-.28c-.28-.26-.42-.66-.43-1.2v-.62l-.02-.32v-17.04s.02-.26.02-.62.05-.66.15-.85c.1-.19.33-.44.69-.75l.62-.54Z" style="fill: none; stroke: red; stroke-miterlimit: 4;"/>
    <path d="M287.69,422.18c-.88-.44-1.63-1-2.25-1.69-.62-.69-1.1-1.5-1.43-2.44-.33-.94-.49-1.94-.49-2.99,0-1.58.35-3.02,1.05-4.33.7-1.31,1.67-2.34,2.89-3.1,1.22-.76,2.57-1.14,4.04-1.14,1.68,0,3.08.42,4.19,1.27s1.67,1.91,1.67,3.18c0,.59-.15,1.07-.44,1.45s-.69.56-1.17.56c-.57,0-.97-.27-1.21-.81-.13-.29-.24-.83-.35-1.63-.13-1.1-.42-1.89-.86-2.37-.45-.48-1.14-.71-2.07-.71-.87,0-1.67.25-2.39.75s-1.31,1.19-1.73,2.06c-.42.87-.63,1.82-.63,2.85,0,1.77.61,3.29,1.83,4.56s3,2.25,5.32,2.92l-.02.6c-1.05.23-1.95.63-2.71,1.22-.76.59-1.34,1.34-1.74,2.25s-.59,1.94-.59,3.06c0,1.42.27,2.57.8,3.47s1.24,1.34,2.12,1.34c.71,0,1.23-.31,1.57-.94.14-.26.24-.53.3-.8.06-.27.16-.86.3-1.78.11-.8.29-1.38.55-1.74.26-.36.61-.54,1.05-.54s.77.18,1.04.54c.27.36.4.82.4,1.4,0,.85-.25,1.63-.75,2.34-.5.71-1.19,1.26-2.05,1.67-.87.41-1.82.61-2.87.61-.88,0-1.7-.14-2.47-.41s-1.41-.66-1.93-1.16c-.52-.5-.93-1.1-1.22-1.82-.29-.72-.44-1.52-.44-2.4,0-1.08.22-2.06.67-2.94.45-.88,1.13-1.68,2.04-2.38ZM287.99,408.14c-2.15,1.53-3.22,3.58-3.22,6.16,0,3.34,1.73,5.81,5.19,7.38-2.39,1.42-3.58,3.34-3.58,5.77,0,.88.14,1.68.43,2.41.29.73.7,1.31,1.24,1.76.54.44,1.16.71,1.87.8-1.29-.89-1.93-2.45-1.93-4.68,0-1.12.17-2.13.51-3.04.34-.91.84-1.69,1.51-2.35.67-.66,1.46-1.16,2.39-1.49-1.37-.48-2.55-1.09-3.53-1.85-.98-.76-1.72-1.62-2.22-2.59-.5-.97-.75-2.03-.75-3.19,0-.63.07-1.21.2-1.77.13-.55.33-1.07.59-1.56.17-.34.61-.93,1.32-1.77ZM293.19,432.4c.9-.3,1.62-.8,2.17-1.49.54-.7.82-1.46.82-2.28,0-.25-.05-.46-.16-.63s-.25-.25-.43-.25c-.36,0-.58.32-.65.96-.14.99-.33,1.74-.57,2.24s-.63.99-1.17,1.47ZM294.35,407.64c.43.46.75.92.94,1.37.2.45.31,1,.34,1.64l.03.51c.02.54.2.81.52.81.41,0,.62-.34.62-1.01s-.21-1.33-.63-1.9c-.42-.56-1.03-1.03-1.83-1.41Z" style="fill: none; stroke: red; stroke-miterlimit: 4;"/>
    <path d="M260.22,406.96v.58c-1.33.22-2.3.74-2.92,1.54-.26.35-.45.79-.56,1.33-.11.53-.16,1.29-.16,2.28v13.29c0,1.25.09,2.19.28,2.82.19.63.53,1.08,1.03,1.37s1.24.48,2.23.58v.58l-7.21,1.79v-20.43c0-1.12-.06-1.93-.19-2.44s-.36-.97-.7-1.37c-.62-.69-1.54-1.13-2.76-1.33v-.58h10.96ZM257.46,407.92h-4.63l.62.54c.23.19.41.36.53.51.12.15.21.3.25.46.05.16.07.37.07.63v21.95l3.85-.94-1.24-.83s-.08-.06-.11-.09l-.38-.28c-.28-.26-.42-.66-.43-1.2v-.62l-.02-.32v-17.04s.02-.26.02-.62.05-.66.15-.85c.1-.19.33-.44.69-.75l.62-.54Z" style="fill: none; stroke: red; stroke-miterlimit: 4;"/>
    <path d="M235.22,413.86v-1.17c0-1.07-.05-1.87-.16-2.42-.11-.54-.3-1-.59-1.38-.53-.7-1.31-1.15-2.35-1.35v-.58h10.2v.58c-1.27.22-2.18.74-2.74,1.54-.26.38-.44.82-.54,1.34s-.14,1.27-.14,2.26v1.17h8.88v2.18l-10.62,16.57h-1.94v-15.2c-.87.05-1.53.24-1.98.57-.45.33-.95.99-1.48,1.98h-.44l1.3-6.11h2.6ZM233.66,415.21l-.43,1.99c.59-.31,1.1-.47,1.54-.47h.48v-1.52h-1.59ZM239.78,407.92h-4.63l.62.54c.36.31.59.56.69.75.1.19.15.47.15.85v.62c.01.11.02.22.02.32v20.97h.19l1.47-2.33v-18.64s0-.08,0-.13c0-.05,0-.11,0-.19v-.62c0-.38.05-.66.15-.85.1-.19.34-.44.71-.75l.62-.54ZM238.89,415.21v1.52h7.69l.59-.9v-.62h-8.28ZM238.89,417.41v11.27l7.23-11.27h-7.23Z" style="fill: none; stroke: red; stroke-miterlimit: 4;"/>
    <path d="M208.51,406.96v.58c-1.33.22-2.3.74-2.92,1.54-.26.35-.45.79-.55,1.33-.11.53-.16,1.29-.16,2.28v13.29c0,1.25.09,2.19.28,2.82.19.63.53,1.08,1.03,1.37.5.29,1.25.48,2.23.58v.58l-7.22,1.79v-20.43c0-1.12-.06-1.93-.19-2.44-.13-.51-.36-.97-.7-1.37-.62-.69-1.54-1.13-2.76-1.33v-.58h10.96ZM205.75,407.92h-4.63l.62.54c.23.19.41.36.53.51.12.15.21.3.25.46.05.16.07.37.07.63v21.95l3.85-.94-1.24-.83s-.08-.06-.11-.09l-.38-.28c-.27-.26-.42-.66-.43-1.2v-.62l-.02-.32v-17.04s.02-.26.02-.62.05-.66.15-.85c.1-.19.33-.44.69-.75l.62-.54Z" style="fill: none; stroke: red; stroke-miterlimit: 4;"/>
    <path d="M195.19,420.71l-2.24,11.91h-6.01c-.81,0-1.51.12-2.08.38-.57.25-1.14.68-1.71,1.28h-.44l1.71-5.24h8.56l.79-4.15c-2.62-.16-4.73-.64-6.31-1.43-1.66-.81-2.94-1.95-3.84-3.41-.9-1.46-1.35-3.13-1.35-5.01,0-1.63.35-3.1,1.06-4.41.71-1.31,1.69-2.34,2.95-3.09,1.26-.75,2.65-1.13,4.17-1.13,1.63,0,3.02.44,4.16,1.31,1.15.87,1.72,1.93,1.72,3.19,0,.61-.16,1.12-.48,1.5-.32.39-.72.58-1.22.58-.95,0-1.48-.66-1.57-1.99l-.06-.85c-.06-.81-.36-1.47-.89-1.97-.53-.5-1.2-.75-2.01-.75-.86,0-1.66.25-2.42.75s-1.35,1.19-1.78,2.07-.64,1.83-.64,2.86.19,2.02.57,2.9c.38.88.93,1.65,1.65,2.31.72.66,1.59,1.17,2.62,1.55,1.24.46,2.93.75,5.07.84ZM194.46,421.33c-1.97-.1-3.63-.43-4.98-.98-.71-.28-1.36-.66-1.96-1.15-.6-.49-1.1-1.04-1.52-1.66-.42-.62-.74-1.29-.97-2.02-.23-.73-.34-1.5-.34-2.31,0-.93.13-1.74.4-2.43s.76-1.48,1.47-2.36c-1.99,1.73-2.98,3.84-2.98,6.33,0,1.21.24,2.34.73,3.37.49,1.03,1.18,1.9,2.08,2.61.9.71,2.01,1.27,3.32,1.7,1.32.43,2.78.66,4.38.71l.36-1.82ZM185.37,430.37l-.65,1.99c.65-.28,1.36-.41,2.16-.41h5.57l.33-1.58h-7.41ZM193.13,407.49l.27.28c.38.4.66.82.85,1.25s.28.91.29,1.44l.03.73c.02.54.2.81.54.81.45,0,.68-.34.68-1.03,0-.75-.24-1.44-.72-2.08-.48-.63-1.13-1.1-1.94-1.4Z" style="fill: none; stroke: red; stroke-miterlimit: 4;"/>
    <path d="M309.51,360.78v.58c-1.33.22-2.3.74-2.92,1.54-.26.35-.45.79-.56,1.33-.11.53-.16,1.29-.16,2.28v13.29c0,1.25.09,2.19.28,2.82.19.63.53,1.08,1.03,1.37s1.24.48,2.23.58v.58l-7.21,1.79v-20.43c0-1.12-.06-1.93-.19-2.44s-.36-.97-.7-1.37c-.62-.69-1.54-1.13-2.76-1.33v-.58h10.96ZM306.75,361.74h-4.63l.62.54c.23.19.41.36.53.51.12.15.21.3.25.46.05.16.07.37.07.63v21.95l3.85-.94-1.24-.83s-.08-.06-.11-.09l-.38-.28c-.28-.26-.42-.66-.43-1.2v-.62l-.02-.32v-17.04s.02-.26.02-.62.05-.66.15-.85c.1-.19.33-.44.69-.75l.62-.54Z" style="fill: none; stroke: red; stroke-miterlimit: 4;"/>
    <path d="M293.02,374.87c-.78.74-1.55,1.27-2.29,1.6-.75.33-1.56.49-2.43.49-1.02,0-1.95-.19-2.8-.56-.85-.38-1.59-.92-2.23-1.63-.63-.71-1.12-1.55-1.47-2.5s-.52-2.02-.52-3.19c0-1.27.18-2.43.54-3.5.36-1.07.88-2.01,1.55-2.83.68-.82,1.47-1.46,2.39-1.91s1.89-.68,2.92-.68c1.12,0,2.17.27,3.16.81.98.54,1.84,1.32,2.58,2.35.86,1.18,1.49,2.53,1.91,4.06s.63,3.26.63,5.21c0,2.07-.24,3.99-.71,5.76-.48,1.77-1.14,3.31-2.01,4.61-.86,1.3-1.88,2.3-3.06,3.01-1.18.7-2.47,1.05-3.86,1.05-.91,0-1.74-.18-2.51-.54-.76-.36-1.36-.84-1.78-1.46-.43-.61-.64-1.29-.64-2.03,0-.59.15-1.07.44-1.44.29-.37.68-.55,1.17-.55.42,0,.77.16,1.04.48.27.32.43.77.48,1.34l.06.81c.06.94.24,1.62.52,2.06.29.43.7.65,1.24.65.68,0,1.35-.32,2.01-.96.67-.64,1.26-1.53,1.79-2.69.91-1.99,1.53-4.6,1.87-7.82ZM288.02,376.24c-1.25-.84-2.14-1.88-2.68-3.14s-.81-2.88-.81-4.89c0-1.89.23-3.43.68-4.62.32-.83.9-1.62,1.75-2.39-.8.4-1.52.99-2.14,1.77-.62.78-1.1,1.68-1.43,2.72-.33,1.03-.49,2.13-.49,3.28,0,4.02,1.71,6.45,5.12,7.27ZM285.74,385.98c-.24-.48-.42-.94-.52-1.39-.11-.45-.16-1-.17-1.65-.03-.64-.24-.96-.62-.96s-.59.34-.59,1.02c0,1.24.63,2.24,1.9,2.99ZM293.02,374.12c.07-.93.11-1.83.11-2.71,0-1.92-.13-3.57-.38-4.97-.25-1.4-.63-2.56-1.14-3.49-.35-.61-.77-1.09-1.26-1.44-.49-.34-1-.52-1.53-.52-.58,0-1.1.16-1.55.49-.45.33-.85.8-1.18,1.44s-.58,1.38-.75,2.24-.25,1.81-.25,2.85c0,1.54.19,2.93.56,4.15s.9,2.18,1.59,2.85c.68.67,1.46,1.01,2.34,1.01.61,0,1.18-.14,1.7-.43.52-.29,1.11-.78,1.76-1.47ZM290.18,385.94c.98-.46,1.86-1.11,2.62-1.95.76-.83,1.41-1.83,1.94-2.99.53-1.16.94-2.45,1.23-3.87.29-1.42.43-2.97.43-4.65s-.16-3.24-.48-4.59c-.32-1.36-.81-2.56-1.45-3.6-.65-1.04-1.49-1.98-2.54-2.82.5.61.93,1.26,1.3,1.93s.67,1.41.89,2.22c.22.81.38,1.68.47,2.62s.13,2.03.13,3.27c0,3.93-.54,7.3-1.63,10.11-.38.98-.79,1.79-1.21,2.42-.43.64-.99,1.27-1.69,1.9Z" style="fill: none; stroke: red; stroke-miterlimit: 4;"/>
    <path d="M258.02,360.78v.58c-1.33.22-2.3.74-2.92,1.54-.26.35-.45.79-.56,1.33-.11.53-.16,1.29-.16,2.28v13.29c0,1.25.09,2.19.28,2.82.19.63.53,1.08,1.03,1.37s1.24.48,2.23.58v.58l-7.21,1.79v-20.43c0-1.12-.06-1.93-.19-2.44s-.36-.97-.7-1.37c-.62-.69-1.54-1.13-2.76-1.33v-.58h10.96ZM255.26,361.74h-4.63l.62.54c.23.19.41.36.53.51.12.15.21.3.25.46.05.16.07.37.07.63v21.95l3.85-.94-1.24-.83s-.08-.06-.11-.09l-.38-.28c-.28-.26-.42-.66-.43-1.2v-.62l-.02-.32v-17.04s.02-.26.02-.62.05-.66.15-.85c.1-.19.33-.44.69-.75l.62-.54Z" style="fill: none; stroke: red; stroke-miterlimit: 4;"/>
    <path d="M238.31,360.78h4.3c-.07,1.94-.26,3.74-.56,5.38-.3,1.65-.7,3.25-1.22,4.8-.38,1.14-.79,2.2-1.22,3.18-.43.98-.95,1.99-1.54,3.04-.73,1.26-1.75,2.92-3.08,4.98l-.38.6h5.99c.87,0,1.62-.09,2.25-.28s1.18-.49,1.64-.9c.46-.41.85-.95,1.17-1.6h.55l-1.9,6.45h-12.04v-.88c2.07-3.61,3.54-6.72,4.39-9.34.3-.88.56-1.83.78-2.87.23-1.03.4-2.12.52-3.26s.21-2.41.25-3.8c.05-1.39.07-2.94.07-4.64v-.86ZM233.52,385.75h10.34l.82-2.63c-.45.43-.92.72-1.4.87-.48.16-1.11.24-1.88.24h-7.03l-.86,1.52ZM239.99,361.74c-.02,1.98-.16,3.92-.41,5.83s-.61,3.74-1.08,5.5c-.46,1.75-1.06,3.5-1.78,5.22,1.04-1.63,1.94-3.37,2.7-5.22.77-1.85,1.36-3.73,1.79-5.64s.67-3.8.74-5.69h-1.97Z" style="fill: none; stroke: red; stroke-miterlimit: 4;"/>
    <path d="M210.64,360.78v.58c-1.33.22-2.3.74-2.92,1.54-.26.35-.45.79-.55,1.33-.11.53-.16,1.29-.16,2.28v13.29c0,1.25.09,2.19.28,2.82.19.63.53,1.08,1.03,1.37.5.29,1.25.48,2.23.58v.58l-7.22,1.79v-20.43c0-1.12-.06-1.93-.19-2.44-.13-.51-.36-.97-.7-1.37-.62-.69-1.54-1.13-2.76-1.33v-.58h10.96ZM207.88,361.74h-4.63l.62.54c.23.19.41.36.53.51.12.15.21.3.25.46.05.16.07.37.07.63v21.95l3.85-.94-1.24-.83s-.08-.06-.11-.09l-.38-.28c-.27-.26-.42-.66-.43-1.2v-.62l-.02-.32v-17.04s.02-.26.02-.62.05-.66.15-.85c.1-.19.33-.44.69-.75l.62-.54Z" style="fill: none; stroke: red; stroke-miterlimit: 4;"/>
    <path d="M187.31,375.49c-1.64-.8-2.84-1.79-3.62-2.96-.77-1.17-1.16-2.62-1.16-4.33,0-1.53.34-2.9,1.01-4.11s1.62-2.15,2.85-2.81c1.23-.66,2.64-1,4.21-1,1.43,0,2.71.3,3.86.91,1.15.61,2.04,1.44,2.69,2.49.65,1.05.97,2.24.97,3.57,0,1-.2,1.97-.61,2.9-.41.93-.96,1.71-1.67,2.32-.66.56-1.5,1.1-2.54,1.62,1.1.89,1.9,1.82,2.4,2.79.5.97.75,2.08.75,3.34,0,.95-.15,1.84-.46,2.67-.31.83-.75,1.54-1.32,2.14s-1.25,1.06-2.05,1.39c-.79.33-1.65.49-2.58.49-.86,0-1.65-.14-2.39-.43-.73-.29-1.37-.69-1.9-1.2-.53-.51-.95-1.13-1.24-1.86-.29-.73-.44-1.51-.44-2.35,0-1.13.25-2.14.76-3.04s1.33-1.74,2.46-2.55ZM185.88,362.7c-.8.68-1.39,1.41-1.75,2.2s-.55,1.72-.55,2.78c0,1.49.36,2.75,1.08,3.78.72,1.03,1.88,1.92,3.47,2.69l2.3,1.13c3.12,1.52,4.68,3.65,4.68,6.41,0,1.03-.26,2-.78,2.93.36-.4.66-.82.89-1.25.23-.43.4-.89.51-1.37.11-.48.16-1.02.16-1.61,0-1.79-.55-3.3-1.65-4.53-.45-.5-.96-.95-1.51-1.34-.56-.4-1.39-.87-2.5-1.42-1.43-.69-2.43-1.22-3.01-1.59-.58-.37-1.1-.81-1.56-1.33-.26-.29-.5-.63-.72-1.01s-.38-.8-.48-1.24c-.11-.44-.16-.9-.16-1.37,0-.76.12-1.44.36-2.02.24-.58.65-1.19,1.23-1.83ZM192.92,373.8c1.01-1.07,1.73-2.06,2.14-2.99.41-.93.62-1.97.62-3.14s-.23-2.27-.7-3.25-1.11-1.74-1.94-2.29c-.83-.55-1.75-.83-2.75-.83s-1.93.22-2.77.67c-.84.44-1.49,1.05-1.95,1.83-.46.78-.69,1.65-.69,2.61,0,1.5.54,2.71,1.62,3.63.43.38.9.71,1.39,1,.49.29,1.38.75,2.66,1.38,1.02.51,1.81.97,2.38,1.37ZM187.9,375.83c-1.51,1.48-2.27,3.21-2.27,5.21,0,.96.2,1.84.61,2.62.41.78.96,1.4,1.67,1.84.7.45,1.49.67,2.35.67.76,0,1.45-.17,2.06-.5.61-.33,1.09-.81,1.44-1.43.34-.62.52-1.32.52-2.11,0-1.3-.49-2.44-1.48-3.41-.99-.97-2.62-1.93-4.89-2.88ZM195.14,372.24c.81-.65,1.42-1.38,1.81-2.19.39-.81.59-1.74.59-2.79,0-1.39-.4-2.62-1.21-3.7-.8-1.08-1.84-1.8-3.11-2.18,1.17.8,2.04,1.69,2.61,2.68.57.98.85,2.13.85,3.43,0,.78-.11,1.52-.34,2.22s-.63,1.55-1.2,2.54Z" style="fill: none; stroke: red; stroke-miterlimit: 4;"/>
  </g>
  <g id="y" data-name="Numbers1">
    <path d="M41.48,96.97v-.6c1.81-.23,3.12-.76,3.96-1.59.36-.36.61-.82.75-1.37.14-.55.21-1.34.21-2.36v-13.72c0-1.29-.13-2.26-.38-2.91-.25-.65-.72-1.12-1.4-1.42-.68-.3-1.69-.5-3.02-.6v-.6l9.78-1.84v21.1c0,1.15.09,1.99.26,2.52s.49,1,.95,1.42c.85.71,2.09,1.17,3.74,1.38v.6h-14.86ZM45.22,95.98h6.28l-.84-.56c-.32-.19-.56-.37-.72-.52-.17-.16-.28-.31-.34-.48-.06-.16-.1-.38-.1-.65v-22.67l-5.22.97,1.68.85c.06.03.11.06.15.1l.52.29c.37.27.57.69.58,1.24v.64l.02.33v17.6c-.01.05-.02.27-.02.64s-.07.68-.2.87c-.14.19-.45.45-.94.78l-.84.56Z" style="fill: none; stroke: red; stroke-miterlimit: 4;"/>
    <path d="M93.27,94.25h7.46c1.89,0,3.43-.25,4.6-.74,1.18-.49,2.21-1.31,3.12-2.45h.71l-2.06,7.2h-16.88l-.02-.8c.65-1.27,1.4-2.49,2.28-3.67.87-1.18,2.15-2.68,3.83-4.52.72-.8,1.32-1.48,1.82-2.03s.88-.97,1.15-1.27c1.45-1.66,2.48-3.1,3.11-4.33.62-1.23.94-2.47.94-3.73,0-1.06-.21-2.04-.63-2.95-.42-.91-1.01-1.61-1.75-2.13-.75-.51-1.55-.77-2.41-.77-1.79,0-2.72,1.01-2.8,3.03l-.04,1.03c-.06,1.58-.74,2.37-2.04,2.37-.63,0-1.15-.2-1.57-.61-.42-.41-.62-.93-.62-1.58,0-.92.37-1.76,1.1-2.53.73-.77,1.73-1.38,3-1.83s2.65-.68,4.14-.68c1.65,0,3.16.3,4.53.89,1.37.6,2.44,1.42,3.2,2.47.77,1.05,1.15,2.24,1.15,3.54,0,.93-.19,1.81-.57,2.63-.38.82-1.01,1.69-1.89,2.6-.88.91-2.04,1.9-3.47,2.96l-3.48,2.6c-2.67,1.97-4.62,3.73-5.87,5.28ZM105.48,97.3l.75-2.58c-1.18.63-2.71.95-4.6.95h-9.55c-.36.58-.67,1.13-.95,1.63h14.34ZM95.33,72.57c-2.08,1.05-3.12,2.32-3.12,3.8,0,.34.08.61.24.82.16.21.37.32.62.32.52,0,.77-.35.77-1.05,0-.97.11-1.73.32-2.28.21-.55.6-1.09,1.16-1.62ZM97.22,89.27c1.76-1.44,3.4-2.87,4.92-4.31,1.62-1.54,2.74-2.81,3.35-3.82.62-1.01.92-2.07.92-3.18,0-1.04-.23-1.96-.68-2.77-.45-.81-1.1-1.48-1.95-2.01-.85-.53-1.83-.86-2.95-.99,1.06.54,1.87,1.3,2.42,2.28.55.98.83,2.13.83,3.46,0,1.05-.21,2.08-.62,3.11-.42,1.02-1.07,2.12-1.96,3.3-1.26,1.64-2.7,3.29-4.3,4.93Z" style="fill: none; stroke: red; stroke-miterlimit: 4;"/>
    <path d="M153.04,81.25c1.19.45,2.21,1.04,3.05,1.75.85.71,1.49,1.55,1.94,2.52.44.97.67,2,.67,3.09,0,1.63-.48,3.12-1.43,4.47-.95,1.35-2.26,2.42-3.91,3.2-1.66.78-3.48,1.17-5.47,1.17-2.28,0-4.17-.44-5.68-1.31-1.5-.87-2.26-1.97-2.26-3.29,0-.61.2-1.11.6-1.49s.93-.58,1.59-.58c.77,0,1.32.28,1.63.83.17.3.33.86.47,1.69.17,1.14.56,1.95,1.17,2.45s1.54.74,2.81.74c1.18,0,2.26-.26,3.25-.78.99-.52,1.77-1.23,2.34-2.12s.86-1.88.86-2.94c0-1.82-.83-3.39-2.48-4.71-1.66-1.31-4.06-2.32-7.21-3.02l.02-.62c1.42-.23,2.64-.65,3.68-1.26,1.03-.61,1.82-1.38,2.35-2.33.54-.94.81-2,.81-3.16,0-1.46-.36-2.66-1.09-3.58-.72-.92-1.68-1.39-2.87-1.39-.96,0-1.67.32-2.13.97-.19.27-.32.55-.41.83-.09.28-.22.89-.41,1.83-.14.83-.39,1.43-.74,1.8s-.83.55-1.43.55-1.04-.18-1.41-.55c-.37-.37-.55-.85-.55-1.45,0-.88.34-1.69,1.02-2.42.68-.73,1.61-1.31,2.78-1.73s2.47-.63,3.89-.63c1.19,0,2.3.14,3.34.43,1.04.28,1.91.68,2.62,1.19.71.51,1.26,1.14,1.66,1.88s.59,1.57.59,2.47c0,1.11-.3,2.13-.91,3.04-.61.91-1.53,1.73-2.76,2.46ZM144.01,96.27c-.59-.48-1.01-.95-1.28-1.42-.27-.47-.42-1.03-.46-1.69l-.04-.52c-.03-.56-.27-.83-.71-.83-.56,0-.84.35-.84,1.05s.28,1.38.85,1.96c.57.58,1.39,1.07,2.48,1.46ZM145.58,70.69c-1.22.31-2.2.83-2.94,1.54-.74.72-1.11,1.5-1.11,2.36,0,.26.07.48.21.65.14.17.34.26.58.26.49,0,.78-.33.88-.99.19-1.02.44-1.79.77-2.31.33-.52.86-1.02,1.59-1.51ZM152.63,95.75c2.91-1.58,4.36-3.7,4.36-6.37,0-3.46-2.34-6-7.03-7.63,3.24-1.46,4.86-3.45,4.86-5.96,0-.91-.19-1.73-.58-2.48-.39-.75-.95-1.36-1.68-1.81-.73-.46-1.58-.73-2.54-.82,1.75.92,2.62,2.53,2.62,4.83,0,1.15-.23,2.2-.69,3.13-.46.94-1.14,1.75-2.04,2.43-.9.68-1.99,1.19-3.25,1.54,1.86.49,3.46,1.13,4.78,1.91,1.33.78,2.33,1.68,3.01,2.68.68,1,1.02,2.1,1.02,3.29,0,.65-.09,1.26-.27,1.82-.18.57-.45,1.11-.81,1.61-.23.35-.82.96-1.78,1.82Z" style="fill: none; stroke: red; stroke-miterlimit: 4;"/>
    <path d="M55.88,137.55v1.2c0,1.1.07,1.93.22,2.49.14.56.41,1.04.8,1.43.72.72,1.78,1.19,3.18,1.4v.6h-13.83v-.6c1.72-.23,2.96-.76,3.72-1.59.36-.39.6-.85.73-1.39.13-.54.19-1.32.19-2.34v-1.2h-12.04v-2.25l14.41-17.12h2.62v15.7c1.18-.05,2.07-.25,2.69-.59.62-.34,1.28-1.03,2-2.05h.6l-1.76,6.31h-3.53ZM50.9,136.15v-1.57h-10.43l-.8.93v.64h11.22ZM50.9,133.88v-11.65l-9.8,11.65h9.8ZM49.69,143.68h6.28l-.84-.56c-.49-.32-.8-.58-.94-.78-.14-.19-.2-.49-.2-.87v-.64c-.01-.12-.02-.23-.02-.33v-21.66h-.26l-2,2.41v19.25s0,.08-.01.14-.01.12-.01.19v.64c0,.39-.07.68-.2.87-.14.19-.46.45-.96.78l-.84.56ZM57.99,136.15l.58-2.06c-.8.32-1.5.49-2.09.49h-.65v1.57h2.15Z" style="fill: none; stroke: red; stroke-miterlimit: 4;"/>
    <path d="M93.35,130.12l3.03-12.31h8.15c1.1,0,2.04-.13,2.82-.39.77-.26,1.55-.7,2.32-1.32h.6l-2.32,5.42h-11.61l-1.08,4.29c3.56.17,6.41.66,8.56,1.48,2.25.84,3.99,2.02,5.2,3.52s1.83,3.23,1.83,5.17c0,1.68-.48,3.2-1.44,4.55-.96,1.35-2.29,2.42-4,3.19-1.71.78-3.59,1.16-5.65,1.16-2.21,0-4.09-.45-5.64-1.35-1.56-.9-2.33-2-2.33-3.29,0-.63.22-1.15.65-1.55.43-.4.98-.6,1.66-.6,1.29,0,2,.69,2.13,2.06l.09.87c.09.84.49,1.52,1.2,2.04.72.52,1.63.78,2.73.78,1.16,0,2.25-.26,3.28-.78,1.02-.52,1.83-1.23,2.41-2.13s.87-1.89.87-2.95-.26-2.09-.77-3c-.52-.91-1.26-1.71-2.24-2.39s-2.16-1.21-3.55-1.6c-1.68-.48-3.97-.77-6.88-.87ZM96.14,143.78l-.37-.29c-.52-.41-.9-.84-1.15-1.29-.25-.45-.38-.94-.4-1.48l-.04-.76c-.03-.56-.27-.83-.73-.83-.62,0-.92.36-.92,1.07,0,.78.33,1.49.98,2.15s1.53,1.14,2.63,1.45ZM94.34,129.48c2.67.1,4.92.44,6.75,1.01.96.28,1.85.68,2.66,1.18.81.5,1.5,1.08,2.06,1.72.57.64,1,1.34,1.31,2.09.31.75.46,1.55.46,2.39,0,.96-.18,1.8-.55,2.51-.37.72-1.03,1.53-1.99,2.44,2.69-1.79,4.04-3.97,4.04-6.54,0-1.25-.33-2.42-.99-3.48-.66-1.07-1.6-1.97-2.82-2.7-1.22-.73-2.72-1.32-4.5-1.76s-3.77-.69-5.95-.74l-.49,1.88ZM106.66,120.14l.88-2.06c-.87.28-1.85.43-2.92.43h-7.55l-.45,1.63h10.04Z" style="fill: none; stroke: red; stroke-miterlimit: 4;"/>
    <path d="M141.71,129.29c1.06-.76,2.1-1.31,3.11-1.65,1.01-.34,2.11-.5,3.3-.5,1.38,0,2.64.19,3.79.58s2.16.95,3.02,1.69c.86.74,1.52,1.6,1.99,2.58.47.98.7,2.08.7,3.3,0,1.31-.24,2.51-.73,3.61s-1.19,2.07-2.11,2.92c-.92.85-2,1.5-3.25,1.97-1.25.47-2.57.7-3.96.7-1.52,0-2.95-.28-4.28-.83-1.33-.56-2.5-1.36-3.5-2.43-1.16-1.22-2.02-2.61-2.59-4.19-.57-1.58-.85-3.37-.85-5.38,0-2.14.32-4.12.97-5.95.65-1.83,1.55-3.42,2.72-4.76s2.55-2.38,4.15-3.11,3.34-1.09,5.24-1.09c1.23,0,2.37.18,3.4.55,1.03.37,1.84.87,2.42,1.5.58.63.87,1.33.87,2.1,0,.61-.2,1.1-.59,1.48-.39.38-.92.57-1.58.57-.57,0-1.04-.17-1.41-.5-.37-.33-.58-.79-.66-1.39l-.09-.83c-.09-.97-.32-1.68-.71-2.13-.39-.45-.95-.67-1.68-.67-.92,0-1.83.33-2.73.99-.9.66-1.71,1.59-2.43,2.78-1.23,2.06-2.08,4.75-2.54,8.07ZM145.56,117.86c-1.33.48-2.52,1.15-3.55,2.01-1.03.86-1.91,1.89-2.63,3.09-.72,1.2-1.28,2.53-1.67,4-.39,1.47-.58,3.07-.58,4.8s.22,3.34.66,4.75c.44,1.4,1.09,2.64,1.97,3.72.87,1.07,2.02,2.04,3.44,2.91-.67-.63-1.26-1.3-1.76-1.99-.5-.69-.9-1.46-1.2-2.29-.3-.83-.51-1.74-.63-2.71-.12-.97-.18-2.1-.18-3.38,0-4.06.74-7.54,2.21-10.44.52-1.01,1.06-1.84,1.65-2.5.58-.66,1.34-1.31,2.29-1.96ZM141.71,130.07c-.1.96-.15,1.89-.15,2.79,0,1.98.17,3.69.52,5.13.34,1.44.86,2.64,1.55,3.6.47.63,1.04,1.13,1.71,1.48s1.36.53,2.08.53c.79,0,1.49-.17,2.11-.5.62-.34,1.15-.83,1.6-1.48s.79-1.42,1.02-2.31c.23-.89.34-1.87.34-2.94,0-1.59-.25-3.02-.76-4.29-.51-1.27-1.23-2.25-2.15-2.94-.92-.69-1.98-1.04-3.17-1.04-.83,0-1.6.15-2.3.45-.7.3-1.5.8-2.39,1.51ZM148.48,127.88c1.69.87,2.9,1.95,3.63,3.24.73,1.29,1.1,2.98,1.1,5.05,0,1.95-.31,3.55-.92,4.77-.43.85-1.22,1.68-2.37,2.47,1.09-.41,2.06-1.02,2.9-1.82.85-.8,1.49-1.74,1.94-2.8.44-1.07.67-2.2.67-3.39,0-4.15-2.31-6.66-6.95-7.51ZM151.58,117.82c.33.49.57.97.71,1.44.14.47.22,1.04.24,1.71.04.66.32.99.84.99s.8-.35.8-1.05c0-1.28-.86-2.31-2.58-3.09Z" style="fill: none; stroke: red; stroke-miterlimit: 4;"/>
    <path d="M51.41,192.37h-5.83c.1-2.01.35-3.86.75-5.56s.95-3.35,1.66-4.96c.52-1.18,1.07-2.27,1.66-3.28s1.28-2.06,2.09-3.14c.99-1.31,2.38-3.02,4.17-5.14l.52-.62h-8.13c-1.18,0-2.19.1-3.05.29-.86.19-1.6.5-2.23.93-.62.43-1.15.98-1.58,1.65h-.75l2.58-6.66h16.32v.91c-2.81,3.73-4.79,6.94-5.96,9.65-.4.91-.76,1.89-1.06,2.96s-.54,2.19-.71,3.37c-.17,1.18-.28,2.48-.34,3.92-.06,1.44-.1,3.03-.1,4.79v.89ZM57.91,166.58h-14.02l-1.12,2.72c.62-.44,1.25-.74,1.9-.9s1.5-.24,2.55-.24h9.53l1.16-1.57ZM49.13,191.38c.03-2.04.21-4.05.56-6.03.34-1.97.83-3.87,1.46-5.68.63-1.81,1.43-3.61,2.41-5.4-1.4,1.68-2.63,3.48-3.67,5.4-1.04,1.92-1.85,3.86-2.43,5.82-.58,1.97-.91,3.93-1,5.88h2.67Z" style="fill: none; stroke: red; stroke-miterlimit: 4;"/>
    <path d="M103.77,177.18c2.22.83,3.86,1.85,4.9,3.06,1.05,1.21,1.57,2.7,1.57,4.47,0,1.58-.46,2.99-1.37,4.24-.91,1.25-2.2,2.22-3.87,2.9-1.67.69-3.57,1.03-5.71,1.03-1.94,0-3.68-.31-5.24-.94s-2.77-1.48-3.64-2.57-1.31-2.32-1.31-3.69c0-1.04.28-2.03.83-3,.55-.96,1.31-1.76,2.27-2.4.89-.58,2.04-1.14,3.44-1.67-1.49-.92-2.58-1.88-3.26-2.88-.68-1-1.02-2.15-1.02-3.44,0-.98.21-1.9.62-2.76.42-.85,1.01-1.59,1.78-2.21s1.7-1.1,2.77-1.44c1.07-.34,2.24-.5,3.5-.5,1.16,0,2.24.15,3.24.45,1,.3,1.86.71,2.58,1.24.72.53,1.28,1.17,1.68,1.92.39.75.59,1.56.59,2.43,0,1.16-.34,2.21-1.03,3.13-.69.93-1.8,1.8-3.33,2.63ZM93.15,180.53c-1.1.67-1.92,1.43-2.45,2.26-.53.83-.8,1.8-.8,2.88,0,1.44.54,2.71,1.63,3.82s2.49,1.86,4.21,2.25c-1.59-.83-2.77-1.75-3.54-2.77-.77-1.02-1.15-2.2-1.15-3.54,0-.8.15-1.57.46-2.29s.85-1.6,1.62-2.62ZM105.71,190.39c1.09-.7,1.88-1.46,2.38-2.27.49-.82.74-1.77.74-2.87,0-1.54-.49-2.84-1.46-3.9-.98-1.06-2.54-1.99-4.71-2.78l-3.12-1.16c-4.23-1.57-6.34-3.77-6.34-6.62,0-1.06.35-2.07,1.05-3.03-.49.41-.89.84-1.2,1.29-.32.45-.54.92-.69,1.42-.14.5-.22,1.05-.22,1.66,0,1.85.75,3.41,2.24,4.68.62.52,1.3.98,2.05,1.39.75.41,1.88.9,3.39,1.47,1.94.71,3.29,1.26,4.07,1.64.78.38,1.49.84,2.12,1.37.36.3.68.65.98,1.05.29.4.51.83.66,1.28.14.45.21.93.21,1.42,0,.79-.16,1.48-.48,2.09-.32.6-.88,1.23-1.67,1.89ZM96.16,178.92c-1.38,1.1-2.34,2.13-2.9,3.09-.56.96-.84,2.04-.84,3.24s.31,2.35.95,3.36,1.51,1.8,2.63,2.37c1.12.57,2.37.85,3.73.85s2.61-.23,3.75-.69c1.14-.46,2.02-1.09,2.65-1.89.62-.8.94-1.7.94-2.7,0-1.55-.73-2.8-2.19-3.75-.59-.39-1.21-.73-1.88-1.04-.67-.3-1.87-.78-3.6-1.43-1.38-.53-2.45-1-3.23-1.42ZM102.97,176.83c2.05-1.53,3.07-3.32,3.07-5.38,0-1-.28-1.9-.83-2.71-.55-.81-1.3-1.44-2.26-1.9s-2.02-.69-3.19-.69c-1.03,0-1.96.17-2.8.51s-1.48.83-1.95,1.48-.7,1.37-.7,2.18c0,1.35.67,2.52,2.01,3.52,1.34,1,3.55,2,6.63,2.98Z" style="fill: none; stroke: red; stroke-miterlimit: 4;"/>
    <path d="M156.69,180.62c-1.02.83-2.08,1.44-3.18,1.84-1.1.4-2.29.6-3.57.6-2.82,0-5.11-.77-6.87-2.3s-2.63-3.53-2.63-5.99c0-1.24.25-2.42.75-3.53s1.21-2.09,2.14-2.92c.92-.83,2.01-1.48,3.26-1.94,1.25-.46,2.56-.69,3.94-.69,1.66,0,3.2.33,4.61.98,1.41.65,2.62,1.57,3.63,2.75,1.01,1.18,1.8,2.6,2.37,4.26.57,1.66.85,3.46.85,5.41,0,2.08-.31,4.01-.94,5.79-.62,1.78-1.52,3.3-2.7,4.55-.83.88-1.73,1.62-2.7,2.23-.97.61-2,1.07-3.09,1.38s-2.21.47-3.38.47-2.27-.17-3.24-.52c-.97-.35-1.73-.83-2.29-1.44-.56-.61-.84-1.29-.84-2.04,0-.61.2-1.1.59-1.47.39-.37.92-.55,1.58-.55.54,0,1,.15,1.35.46.36.3.58.71.67,1.23l.13.8c.16.88.43,1.52.81,1.91.38.4.92.59,1.62.59.92,0,1.83-.35,2.73-1.04.9-.69,1.68-1.65,2.32-2.86,1.13-2.07,1.82-4.72,2.06-7.96ZM149.03,182.37c-3.73-1.72-5.59-4.57-5.59-8.56,0-1.51.26-2.82.77-3.93.52-1.11,1.35-2.09,2.52-2.96-1.12.48-2.09,1.11-2.9,1.89-.82.78-1.45,1.69-1.89,2.71-.44,1.02-.67,2.09-.67,3.2,0,1.28.28,2.46.84,3.52.56,1.07,1.36,1.96,2.41,2.67.62.4,1.24.71,1.88.92.64.21,1.52.39,2.63.53ZM146.52,192.56c-.52-.54-.86-1-1.03-1.36-.17-.36-.32-.93-.43-1.71-.09-.63-.32-.95-.71-.95-.52,0-.77.32-.77.95,0,.54.24,1.1.71,1.67.33.36.62.62.87.78.25.16.71.36,1.37.62ZM156.66,179.65l.02-1.18c0-1.82-.17-3.56-.51-5.22s-.78-2.95-1.32-3.88c-.52-.94-1.17-1.68-1.96-2.2-.79-.52-1.63-.79-2.52-.79-1.48,0-2.66.6-3.56,1.81-.9,1.21-1.34,2.84-1.34,4.88,0,1.64.27,3.14.81,4.48.54,1.35,1.29,2.4,2.26,3.15.97.76,2.05,1.14,3.24,1.14.83,0,1.63-.17,2.39-.5s1.59-.9,2.49-1.69ZM152.41,192.25c2.42-1.06,4.27-2.7,5.54-4.91,1.27-2.21,1.9-4.91,1.9-8.09,0-1.51-.12-2.89-.37-4.11-.24-1.23-.63-2.36-1.15-3.39-.52-1.03-1.18-1.94-1.97-2.74-.79-.8-1.73-1.5-2.82-2.12.85.76,1.49,1.5,1.95,2.21.45.71.83,1.6,1.15,2.68.59,1.9.88,4.31.88,7.22,0,1.62-.13,3.16-.4,4.62-.27,1.46-.66,2.79-1.17,3.98-.46,1.06-.94,1.92-1.43,2.56-.49.65-1.2,1.35-2.12,2.1Z" style="fill: none; stroke: red; stroke-miterlimit: 4;"/>
  </g>
  <g id="z" data-name="Numbers3">
    <path d="M308.73,595.37v.58c-1.27.22-2.19.73-2.78,1.52-.25.35-.43.78-.53,1.31-.1.53-.15,1.28-.15,2.26v13.14c0,1.24.09,2.17.26,2.79.18.62.5,1.07.98,1.36.48.28,1.19.48,2.12.58v.58l-6.87,1.77v-20.2c0-1.1-.06-1.91-.18-2.42-.12-.51-.34-.96-.66-1.36-.59-.68-1.47-1.12-2.63-1.32v-.58h10.43ZM306.1,596.32h-4.41l.59.54c.22.19.39.35.51.5.12.15.2.3.24.46.04.15.07.36.07.62v21.71l3.67-.93-1.18-.82s-.08-.06-.11-.09l-.36-.28c-.26-.26-.4-.66-.41-1.19v-.93s-.01-16.54-.01-16.54v-.32s.01-.25.01-.61.05-.65.14-.84.32-.43.66-.74l.59-.54Z" style="fill: none; stroke: red; stroke-miterlimit: 4;"/>
    <path d="M285.43,606.97c.71-.79,1.46-1.38,2.23-1.77s1.61-.58,2.51-.58c1.98,0,3.59.73,4.82,2.2,1.23,1.47,1.85,3.38,1.85,5.73,0,1.19-.18,2.32-.53,3.38-.35,1.07-.85,2-1.5,2.8-.65.8-1.41,1.42-2.29,1.86-.88.44-1.8.66-2.76.66-1.17,0-2.25-.31-3.24-.94-.99-.63-1.84-1.5-2.55-2.63-.71-1.13-1.26-2.49-1.66-4.08-.4-1.59-.6-3.32-.6-5.18,0-2,.22-3.84.66-5.55.44-1.7,1.07-3.16,1.89-4.36.58-.84,1.22-1.55,1.9-2.14.68-.58,1.4-1.02,2.17-1.32.77-.3,1.56-.45,2.37-.45s1.59.17,2.27.5c.68.33,1.21.79,1.61,1.38.39.58.59,1.23.59,1.95,0,.58-.14,1.05-.42,1.4-.28.35-.65.53-1.11.53-.38,0-.7-.15-.95-.44-.25-.29-.41-.68-.47-1.18l-.09-.76c-.11-.84-.3-1.45-.57-1.83s-.65-.57-1.14-.57c-.64,0-1.28.33-1.92,1-.63.66-1.18,1.58-1.63,2.74-.79,1.98-1.28,4.52-1.45,7.62ZM288.43,595.84c-1.7,1.02-3,2.58-3.89,4.7s-1.34,4.7-1.34,7.75c0,1.45.09,2.76.26,3.94s.44,2.26.81,3.24.83,1.86,1.38,2.62c.55.76,1.21,1.44,1.98,2.04-.59-.73-1.05-1.44-1.37-2.12s-.59-1.54-.81-2.56c-.41-1.82-.62-4.13-.62-6.91,0-1.55.09-3.02.28-4.42s.46-2.67.82-3.81c.32-1.02.66-1.83,1-2.45.35-.62.84-1.29,1.49-2.01ZM285.44,607.9v1.13c-.01,1.75.1,3.41.34,5s.55,2.83.93,3.72c.36.9.82,1.61,1.37,2.11s1.14.75,1.77.75c1.04,0,1.87-.58,2.5-1.74s.94-2.72.94-4.67c0-1.57-.19-3-.57-4.29-.38-1.29-.91-2.29-1.58-3.02-.68-.72-1.44-1.09-2.27-1.09-.58,0-1.14.16-1.68.48-.53.32-1.12.86-1.75,1.62ZM290.8,605.3c2.62,1.65,3.93,4.38,3.93,8.2,0,1.45-.18,2.7-.54,3.76s-.95,2-1.77,2.83c.79-.46,1.46-1.06,2.04-1.81.57-.75,1.02-1.61,1.33-2.59.31-.98.47-2,.47-3.07,0-1.23-.2-2.35-.59-3.37-.39-1.02-.96-1.87-1.69-2.55-.43-.38-.87-.68-1.32-.88-.45-.21-1.06-.38-1.85-.51ZM292.57,595.54c.36.52.6.95.72,1.3.12.35.22.89.3,1.63.06.61.23.91.5.91.36,0,.54-.3.54-.91,0-.52-.17-1.05-.5-1.6-.23-.35-.44-.59-.61-.74-.18-.15-.5-.35-.96-.59Z" style="fill: none; stroke: red; stroke-miterlimit: 4;"/>
    <path d="M258.18,599.22h-5.24c-1.33,0-2.41.24-3.23.71-.83.47-1.55,1.25-2.19,2.34h-.5l1.45-6.9h11.85v.76c-.44,1.21-.97,2.39-1.59,3.51-.61,1.13-1.51,2.57-2.69,4.33-.5.77-.93,1.42-1.28,1.94-.35.53-.62.93-.81,1.22-1.02,1.59-1.74,2.97-2.18,4.14-.44,1.18-.66,2.37-.66,3.57,0,1.02.15,1.96.45,2.82s.71,1.55,1.23,2.04c.52.49,1.09.73,1.69.73,1.26,0,1.91-.97,1.96-2.9l.03-.98c.04-1.51.52-2.27,1.43-2.27.44,0,.81.19,1.1.58s.44.9.44,1.51c0,.88-.26,1.69-.77,2.43-.51.74-1.22,1.32-2.11,1.76s-1.86.65-2.91.65c-1.16,0-2.22-.29-3.18-.86-.96-.57-1.71-1.36-2.25-2.37-.54-1.01-.81-2.14-.81-3.39,0-.89.13-1.73.4-2.52s.71-1.62,1.33-2.49c.62-.87,1.43-1.82,2.44-2.83l2.45-2.49c1.87-1.88,3.25-3.57,4.12-5.05ZM255.4,604c-1.24,1.38-2.39,2.75-3.46,4.13-1.14,1.47-1.92,2.7-2.36,3.66-.43.97-.65,1.98-.65,3.05,0,.99.16,1.87.48,2.65.32.77.77,1.42,1.37,1.92.59.51,1.28.82,2.07.95-.74-.52-1.31-1.25-1.7-2.18s-.58-2.04-.58-3.32c0-1,.15-2,.44-2.97.29-.98.75-2.03,1.37-3.16.89-1.57,1.89-3.15,3.02-4.72ZM249.6,596.3l-.53,2.47c.83-.61,1.9-.91,3.23-.91h6.7c.25-.56.47-1.08.67-1.56h-10.07ZM256.73,619.98c1.46-1,2.19-2.22,2.19-3.64,0-.32-.06-.58-.17-.79-.11-.2-.26-.31-.44-.31-.36,0-.54.33-.54,1,0,.93-.08,1.66-.23,2.18-.15.53-.42,1.04-.82,1.55Z" style="fill: none; stroke: red; stroke-miterlimit: 4;"/>
    <path d="M245.33,608.03c0,2.4-.39,4.63-1.18,6.67-.79,2.04-1.85,3.67-3.2,4.86-1.35,1.2-2.82,1.79-4.41,1.79s-3.04-.6-4.39-1.79c-1.34-1.2-2.41-2.82-3.19-4.87-.78-2.05-1.18-4.27-1.18-6.66s.39-4.61,1.18-6.65c.79-2.04,1.84-3.66,3.18-4.86,1.33-1.2,2.79-1.79,4.37-1.79s3.08.59,4.42,1.77c1.35,1.18,2.42,2.8,3.21,4.85.79,2.05,1.19,4.28,1.19,6.68ZM234.18,596.12c-3.23,2.69-4.85,6.65-4.85,11.88,0,1.26.11,2.5.32,3.7s.5,2.29.88,3.27c.37.98.84,1.88,1.4,2.69.56.82,1.19,1.49,1.89,2.01-.93-1.19-1.6-2.62-2.02-4.29-.52-2.08-.79-4.48-.79-7.19,0-3.16.32-5.84.97-8.05.15-.52.33-1,.53-1.43.2-.43.44-.86.71-1.27.27-.42.59-.85.97-1.31ZM241.52,608.31c0-1.9-.11-3.61-.34-5.15-.23-1.54-.56-2.87-1.01-4-.45-1.13-.98-1.98-1.6-2.57-.62-.58-1.3-.87-2.05-.87-1.23,0-2.3.85-3.22,2.56-.38.71-.7,1.54-.95,2.5-.25.96-.44,2.06-.57,3.29-.13,1.23-.2,2.6-.2,4.12,0,2.5.2,4.7.6,6.58.4,1.88.98,3.33,1.74,4.34s1.63,1.52,2.63,1.52c.75,0,1.42-.29,2.03-.87.61-.58,1.14-1.43,1.58-2.54.44-1.11.78-2.4,1.01-3.88.23-1.47.35-3.15.35-5.04ZM239.73,596.32c1.09,1.25,1.92,2.89,2.48,4.92.57,2.03.85,4.34.85,6.93s-.28,4.79-.83,6.73c-.55,1.93-1.37,3.56-2.46,4.87,1.04-.78,1.93-1.77,2.68-2.96.75-1.2,1.32-2.53,1.72-4.01.4-1.48.6-3.03.6-4.64,0-1.7-.19-3.29-.58-4.77-.39-1.48-.97-2.83-1.74-4.05s-1.68-2.23-2.73-3.02Z" style="fill: none; stroke: red; stroke-miterlimit: 4;"/>
    <path d="M204.2,599.22h-5.24c-1.33,0-2.41.24-3.23.71s-1.56,1.25-2.19,2.34h-.5l1.45-6.9h11.85l.02.76c-.45,1.21-.99,2.39-1.6,3.51-.61,1.13-1.51,2.57-2.69,4.33-.5.77-.93,1.42-1.28,1.94-.35.53-.62.93-.81,1.22-1.02,1.59-1.74,2.97-2.18,4.14-.44,1.18-.66,2.37-.66,3.57,0,1.02.15,1.96.45,2.82s.71,1.55,1.23,2.04c.52.49,1.09.73,1.69.73,1.26,0,1.91-.97,1.96-2.9l.03-.98c.04-1.51.52-2.27,1.43-2.27.44,0,.81.19,1.1.58s.44.9.44,1.51c0,.88-.26,1.69-.77,2.43-.51.74-1.22,1.32-2.11,1.76-.89.43-1.86.65-2.91.65-1.16,0-2.22-.29-3.18-.86-.96-.57-1.71-1.36-2.25-2.37-.54-1.01-.81-2.14-.81-3.39,0-.89.13-1.73.4-2.52.27-.79.71-1.62,1.33-2.49.62-.87,1.43-1.82,2.44-2.83l2.45-2.49c1.87-1.88,3.25-3.57,4.12-5.05ZM201.42,604c-1.24,1.38-2.39,2.75-3.46,4.13-1.14,1.47-1.92,2.7-2.35,3.66-.43.97-.65,1.98-.65,3.05,0,.99.16,1.87.48,2.65.32.77.77,1.42,1.37,1.92.59.51,1.28.82,2.07.95-.75-.52-1.31-1.25-1.7-2.18-.39-.94-.58-2.04-.58-3.32,0-1,.15-2,.44-2.97.29-.98.75-2.03,1.37-3.16.89-1.57,1.89-3.15,3.02-4.72ZM195.62,596.3l-.53,2.47c.83-.61,1.9-.91,3.23-.91h6.7c.25-.56.47-1.08.66-1.56h-10.07ZM202.75,619.98c1.46-1,2.19-2.22,2.19-3.64,0-.32-.06-.58-.17-.79-.11-.2-.26-.31-.44-.31-.36,0-.54.33-.54,1,0,.93-.08,1.66-.23,2.18-.15.53-.42,1.04-.81,1.55Z" style="fill: none; stroke: red; stroke-miterlimit: 4;"/>
    <path d="M191.52,595.37v.58c-1.27.22-2.19.73-2.78,1.52-.25.35-.43.78-.53,1.31-.1.53-.15,1.28-.15,2.26v13.14c0,1.24.09,2.17.26,2.79.18.62.5,1.07.98,1.36.48.28,1.19.48,2.12.58v.58l-6.87,1.77v-20.2c0-1.1-.06-1.91-.18-2.42-.12-.51-.34-.96-.66-1.36-.59-.68-1.47-1.12-2.63-1.32v-.58h10.43ZM188.89,596.32h-4.41l.59.54c.22.19.39.35.51.5.12.15.2.3.24.46.05.15.07.36.07.62v21.71l3.67-.93-1.18-.82s-.08-.06-.11-.09l-.36-.28c-.26-.26-.4-.66-.41-1.19v-.61l-.02-.32v-16.86s.02-.25.02-.61.05-.65.14-.84.31-.43.66-.74l.59-.54Z" style="fill: none; stroke: red; stroke-miterlimit: 4;"/>
    <path d="M307.35,553.54h-5.24c-1.33,0-2.41.24-3.23.71-.83.47-1.55,1.25-2.19,2.34h-.5l1.45-6.9h11.85v.76c-.44,1.21-.97,2.39-1.59,3.51-.61,1.13-1.51,2.57-2.69,4.33-.5.77-.93,1.42-1.28,1.94-.35.53-.62.93-.81,1.22-1.02,1.59-1.74,2.97-2.18,4.14-.44,1.18-.66,2.37-.66,3.57,0,1.02.15,1.96.45,2.82s.71,1.55,1.23,2.04c.52.49,1.09.73,1.69.73,1.26,0,1.91-.97,1.96-2.9l.03-.98c.04-1.51.52-2.27,1.43-2.27.44,0,.81.19,1.1.58s.44.9.44,1.51c0,.88-.26,1.69-.77,2.43-.51.74-1.22,1.32-2.11,1.76s-1.86.65-2.91.65c-1.16,0-2.22-.29-3.18-.86-.96-.57-1.71-1.36-2.25-2.37-.54-1.01-.81-2.14-.81-3.39,0-.89.13-1.73.4-2.52s.71-1.62,1.33-2.49c.62-.87,1.43-1.82,2.44-2.83l2.45-2.49c1.87-1.88,3.25-3.57,4.12-5.05ZM304.57,558.32c-1.24,1.38-2.39,2.75-3.46,4.13-1.14,1.47-1.92,2.7-2.36,3.66-.43.97-.65,1.98-.65,3.05,0,.99.16,1.87.48,2.65.32.77.77,1.42,1.37,1.92.59.51,1.28.82,2.07.95-.74-.52-1.31-1.25-1.7-2.18s-.58-2.04-.58-3.32c0-1,.15-2,.44-2.97.29-.98.75-2.03,1.37-3.16.89-1.57,1.89-3.15,3.02-4.72ZM298.78,550.63l-.53,2.47c.83-.61,1.9-.91,3.23-.91h6.7c.25-.56.47-1.08.67-1.56h-10.07ZM305.9,574.3c1.46-1,2.19-2.22,2.19-3.64,0-.32-.06-.58-.17-.79-.11-.2-.26-.31-.44-.31-.36,0-.54.33-.54,1,0,.93-.08,1.66-.23,2.18-.15.53-.42,1.04-.82,1.55Z" style="fill: none; stroke: red; stroke-miterlimit: 4;"/>
    <path d="M293.3,553.54h-5.24c-1.33,0-2.41.24-3.23.71-.83.47-1.55,1.25-2.19,2.34h-.5l1.45-6.9h11.85v.76c-.44,1.21-.97,2.39-1.59,3.51-.61,1.13-1.51,2.57-2.69,4.33-.5.77-.93,1.42-1.28,1.94-.35.53-.62.93-.81,1.22-1.02,1.59-1.74,2.97-2.18,4.14-.44,1.18-.66,2.37-.66,3.57,0,1.02.15,1.96.45,2.82s.71,1.55,1.23,2.04c.52.49,1.09.73,1.69.73,1.26,0,1.91-.97,1.96-2.9l.03-.98c.04-1.51.52-2.27,1.43-2.27.44,0,.81.19,1.1.58s.44.9.44,1.51c0,.88-.26,1.69-.77,2.43-.51.74-1.22,1.32-2.11,1.76s-1.86.65-2.91.65c-1.16,0-2.22-.29-3.18-.86-.96-.57-1.71-1.36-2.25-2.37-.54-1.01-.81-2.14-.81-3.39,0-.89.13-1.73.4-2.52s.71-1.62,1.33-2.49c.62-.87,1.43-1.82,2.44-2.83l2.45-2.49c1.87-1.88,3.25-3.57,4.12-5.05ZM290.52,558.32c-1.24,1.38-2.39,2.75-3.46,4.13-1.14,1.47-1.92,2.7-2.36,3.66-.43.97-.65,1.98-.65,3.05,0,.99.16,1.87.48,2.65.32.77.77,1.42,1.37,1.92.59.51,1.28.82,2.07.95-.74-.52-1.31-1.25-1.7-2.18s-.58-2.04-.58-3.32c0-1,.15-2,.44-2.97.29-.98.75-2.03,1.37-3.16.89-1.57,1.89-3.15,3.02-4.72ZM284.72,550.63l-.53,2.47c.83-.61,1.9-.91,3.23-.91h6.7c.25-.56.47-1.08.67-1.56h-10.07ZM291.85,574.3c1.46-1,2.19-2.22,2.19-3.64,0-.32-.06-.58-.17-.79-.11-.2-.26-.31-.44-.31-.36,0-.54.33-.54,1,0,.93-.08,1.66-.23,2.18-.15.53-.42,1.04-.82,1.55Z" style="fill: none; stroke: red; stroke-miterlimit: 4;"/>
    <path d="M258.77,553.54h-5.24c-1.33,0-2.41.24-3.23.71-.83.47-1.55,1.25-2.19,2.34h-.5l1.45-6.9h11.85v.76c-.44,1.21-.97,2.39-1.59,3.51-.61,1.13-1.51,2.57-2.69,4.33-.5.77-.93,1.42-1.28,1.94-.35.53-.62.93-.81,1.22-1.02,1.59-1.74,2.97-2.18,4.14-.44,1.18-.66,2.37-.66,3.57,0,1.02.15,1.96.45,2.82s.71,1.55,1.23,2.04c.52.49,1.09.73,1.69.73,1.26,0,1.91-.97,1.96-2.9l.03-.98c.04-1.51.52-2.27,1.43-2.27.44,0,.81.19,1.1.58s.44.9.44,1.51c0,.88-.26,1.69-.77,2.43-.51.74-1.22,1.32-2.11,1.76s-1.86.65-2.91.65c-1.16,0-2.22-.29-3.18-.86-.96-.57-1.71-1.36-2.25-2.37-.54-1.01-.81-2.14-.81-3.39,0-.89.13-1.73.4-2.52s.71-1.62,1.33-2.49c.62-.87,1.43-1.82,2.44-2.83l2.45-2.49c1.87-1.88,3.25-3.57,4.12-5.05ZM255.99,558.32c-1.24,1.38-2.39,2.75-3.46,4.13-1.14,1.47-1.92,2.7-2.36,3.66-.43.97-.65,1.98-.65,3.05,0,.99.16,1.87.48,2.65.32.77.77,1.42,1.37,1.92.59.51,1.28.82,2.07.95-.74-.52-1.31-1.25-1.7-2.18s-.58-2.04-.58-3.32c0-1,.15-2,.44-2.97.29-.98.75-2.03,1.37-3.16.89-1.57,1.89-3.15,3.02-4.72ZM250.19,550.63l-.53,2.47c.83-.61,1.9-.91,3.23-.91h6.7c.25-.56.47-1.08.67-1.56h-10.07ZM257.32,574.3c1.46-1,2.19-2.22,2.19-3.64,0-.32-.06-.58-.17-.79-.11-.2-.26-.31-.44-.31-.36,0-.54.33-.54,1,0,.93-.08,1.66-.23,2.18-.15.53-.42,1.04-.82,1.55Z" style="fill: none; stroke: red; stroke-miterlimit: 4;"/>
    <path d="M237.1,564.75c-.83-.43-1.55-.99-2.14-1.67-.59-.68-1.05-1.49-1.36-2.42s-.47-1.91-.47-2.96c0-1.56.33-2.99,1-4.28.67-1.29,1.59-2.32,2.75-3.07,1.16-.75,2.44-1.12,3.84-1.12,1.6,0,2.93.42,3.99,1.25,1.06.84,1.58,1.89,1.58,3.15,0,.58-.14,1.06-.42,1.43-.28.37-.65.56-1.12.56-.54,0-.93-.27-1.15-.8-.12-.29-.23-.82-.33-1.62-.12-1.09-.4-1.87-.82-2.34-.43-.47-1.08-.71-1.97-.71-.83,0-1.59.25-2.28.74-.69.5-1.24,1.17-1.65,2.04-.4.86-.6,1.8-.6,2.82,0,1.75.58,3.25,1.74,4.51,1.16,1.26,2.85,2.22,5.07,2.89l-.02.59c-1,.22-1.86.63-2.58,1.21-.73.58-1.28,1.33-1.65,2.23s-.57,1.91-.57,3.03c0,1.4.25,2.54.76,3.43s1.18,1.33,2.02,1.33c.67,0,1.17-.31,1.49-.93.13-.26.23-.52.29-.79.06-.27.16-.85.29-1.76.1-.79.27-1.37.52-1.72.25-.35.58-.53,1-.53s.73.18.99.53c.26.35.38.81.38,1.38,0,.84-.24,1.61-.72,2.31-.48.7-1.13,1.25-1.96,1.65-.83.4-1.74.6-2.73.6-.84,0-1.62-.14-2.35-.41s-1.34-.65-1.84-1.14c-.5-.49-.89-1.09-1.16-1.8-.28-.71-.42-1.5-.42-2.37,0-1.07.21-2.04.64-2.91.43-.87,1.07-1.66,1.94-2.35ZM237.38,550.87c-2.04,1.51-3.06,3.54-3.06,6.1,0,3.31,1.65,5.74,4.94,7.3-2.27,1.4-3.41,3.3-3.41,5.71,0,.87.14,1.66.41,2.38.27.72.66,1.3,1.18,1.74.51.44,1.11.7,1.78.79-1.23-.88-1.84-2.42-1.84-4.63,0-1.1.16-2.1.48-3s.8-1.67,1.43-2.32,1.39-1.14,2.28-1.48c-1.31-.47-2.43-1.08-3.36-1.83-.93-.75-1.64-1.6-2.11-2.56-.48-.96-.72-2.01-.72-3.15,0-.62.06-1.2.19-1.75.13-.55.31-1.06.57-1.54.16-.33.58-.92,1.25-1.75ZM242.34,574.86c.86-.3,1.54-.79,2.06-1.48.52-.69.78-1.44.78-2.26,0-.25-.05-.46-.15-.62-.1-.17-.24-.25-.41-.25-.34,0-.55.32-.62.95-.13.98-.31,1.72-.54,2.21-.23.5-.6.98-1.12,1.45ZM243.44,550.37c.41.46.71.91.9,1.36.19.45.29.99.32,1.62l.03.5c.02.53.19.8.5.8.39,0,.59-.33.59-1s-.2-1.32-.6-1.88c-.4-.56-.98-1.02-1.74-1.39Z" style="fill: none; stroke: red; stroke-miterlimit: 4;"/>
    <path d="M209.57,553.54h-5.24c-1.33,0-2.41.24-3.23.71s-1.56,1.25-2.19,2.34h-.5l1.45-6.9h11.85l.02.76c-.45,1.21-.99,2.39-1.6,3.51-.61,1.13-1.51,2.57-2.69,4.33-.5.77-.93,1.42-1.28,1.94-.35.53-.62.93-.81,1.22-1.02,1.59-1.74,2.97-2.18,4.14-.44,1.18-.66,2.37-.66,3.57,0,1.02.15,1.96.45,2.82s.71,1.55,1.23,2.04c.52.49,1.09.73,1.69.73,1.26,0,1.91-.97,1.96-2.9l.03-.98c.04-1.51.52-2.27,1.43-2.27.44,0,.81.19,1.1.58s.44.9.44,1.51c0,.88-.26,1.69-.77,2.43-.51.74-1.22,1.32-2.11,1.76-.89.43-1.86.65-2.91.65-1.16,0-2.22-.29-3.18-.86-.96-.57-1.71-1.36-2.25-2.37-.54-1.01-.81-2.14-.81-3.39,0-.89.13-1.73.4-2.52.27-.79.71-1.62,1.33-2.49.62-.87,1.43-1.82,2.44-2.83l2.45-2.49c1.87-1.88,3.25-3.57,4.12-5.05ZM206.8,558.32c-1.24,1.38-2.39,2.75-3.46,4.13-1.14,1.47-1.92,2.7-2.35,3.66-.43.97-.65,1.98-.65,3.05,0,.99.16,1.87.48,2.65.32.77.77,1.42,1.37,1.92.59.51,1.28.82,2.07.95-.75-.52-1.31-1.25-1.7-2.18-.39-.94-.58-2.04-.58-3.32,0-1,.15-2,.44-2.97.29-.98.75-2.03,1.37-3.16.89-1.57,1.89-3.15,3.02-4.72ZM201,550.63l-.53,2.47c.83-.61,1.9-.91,3.23-.91h6.7c.25-.56.47-1.08.66-1.56h-10.07ZM208.12,574.3c1.46-1,2.19-2.22,2.19-3.64,0-.32-.06-.58-.17-.79-.11-.2-.26-.31-.44-.31-.36,0-.54.33-.54,1,0,.93-.08,1.66-.23,2.18-.15.53-.42,1.04-.81,1.55Z" style="fill: none; stroke: red; stroke-miterlimit: 4;"/>
    <path d="M184.87,556.52v-1.15c0-1.05-.05-1.85-.15-2.39s-.29-.99-.56-1.37c-.5-.69-1.25-1.14-2.23-1.34v-.58h9.71v.58c-1.21.22-2.08.73-2.61,1.52-.25.37-.42.81-.51,1.33-.09.51-.14,1.26-.14,2.24v1.15h8.46v2.16l-10.12,16.39h-1.84v-15.04c-.83.05-1.45.24-1.89.57-.43.33-.9.98-1.4,1.96h-.42l1.24-6.04h2.48ZM183.39,557.86l-.41,1.97c.56-.31,1.05-.46,1.46-.46h.45v-1.51h-1.51ZM189.22,550.64h-4.41l.59.54c.34.31.56.56.66.74s.14.46.14.84v.61c.01.11.02.22.02.32v20.74h.18l1.4-2.3v-18.44s0-.08,0-.13c0-.05,0-.11,0-.19v-.61c0-.37.05-.65.14-.84s.32-.43.67-.74l.59-.54ZM188.37,557.86v1.51h7.32l.56-.89v-.61h-7.88ZM188.37,560.03v11.15l6.88-11.15h-6.88Z" style="fill: none; stroke: red; stroke-miterlimit: 4;"/>
    <path d="M307.35,507.87h-5.24c-1.33,0-2.41.24-3.23.71-.83.47-1.55,1.25-2.19,2.34h-.5l1.45-6.9h11.85v.76c-.44,1.21-.97,2.39-1.59,3.51-.61,1.13-1.51,2.57-2.69,4.33-.5.77-.93,1.42-1.28,1.94-.35.53-.62.93-.81,1.22-1.02,1.59-1.74,2.97-2.18,4.14-.44,1.18-.66,2.37-.66,3.57,0,1.02.15,1.96.45,2.82s.71,1.55,1.23,2.04c.52.49,1.09.73,1.69.73,1.26,0,1.91-.97,1.96-2.9l.03-.98c.04-1.51.52-2.27,1.43-2.27.44,0,.81.19,1.1.58s.44.9.44,1.51c0,.88-.26,1.69-.77,2.43-.51.74-1.22,1.32-2.11,1.76s-1.86.65-2.91.65c-1.16,0-2.22-.29-3.18-.86-.96-.57-1.71-1.36-2.25-2.37-.54-1.01-.81-2.14-.81-3.39,0-.89.13-1.73.4-2.52s.71-1.62,1.33-2.49c.62-.87,1.43-1.82,2.44-2.83l2.45-2.49c1.87-1.88,3.25-3.57,4.12-5.05ZM304.57,512.64c-1.24,1.38-2.39,2.75-3.46,4.13-1.14,1.47-1.92,2.7-2.36,3.66-.43.97-.65,1.98-.65,3.05,0,.99.16,1.87.48,2.65.32.77.77,1.42,1.37,1.92.59.51,1.28.82,2.07.95-.74-.52-1.31-1.25-1.7-2.18s-.58-2.04-.58-3.32c0-1,.15-2,.44-2.97.29-.98.75-2.03,1.37-3.16.89-1.57,1.89-3.15,3.02-4.72ZM298.78,504.95l-.53,2.47c.83-.61,1.9-.91,3.23-.91h6.7c.25-.56.47-1.08.67-1.56h-10.07ZM305.9,528.63c1.46-1,2.19-2.22,2.19-3.64,0-.32-.06-.58-.17-.79-.11-.2-.26-.31-.44-.31-.36,0-.54.33-.54,1,0,.93-.08,1.66-.23,2.18-.15.53-.42,1.04-.82,1.55Z" style="fill: none; stroke: red; stroke-miterlimit: 4;"/>
    <path d="M293.78,517.62l-2.13,11.78h-5.72c-.77,0-1.43.12-1.98.37-.54.25-1.09.67-1.63,1.26h-.42l1.63-5.19h8.15l.75-4.11c-2.5-.16-4.5-.63-6.01-1.41-1.58-.81-2.8-1.93-3.65-3.37s-1.28-3.09-1.28-4.95c0-1.61.34-3.06,1.01-4.36.67-1.29,1.61-2.31,2.81-3.06,1.2-.74,2.52-1.12,3.97-1.12,1.55,0,2.87.43,3.96,1.29s1.64,1.91,1.64,3.15c0,.61-.15,1.1-.45,1.49-.3.38-.69.58-1.16.58-.91,0-1.4-.66-1.49-1.97l-.06-.84c-.06-.8-.34-1.46-.85-1.95-.5-.5-1.14-.74-1.92-.74-.82,0-1.58.25-2.3.74-.72.5-1.28,1.18-1.69,2.04-.41.87-.61,1.81-.61,2.82s.18,2,.54,2.87c.36.87.89,1.64,1.57,2.29s1.52,1.16,2.49,1.53c1.18.46,2.79.74,4.83.84ZM293.08,518.24c-1.87-.1-3.45-.42-4.74-.97-.67-.27-1.3-.65-1.87-1.13-.57-.48-1.05-1.03-1.45-1.64s-.7-1.28-.92-2c-.22-.72-.32-1.48-.32-2.29,0-.92.13-1.72.38-2.41s.72-1.47,1.4-2.33c-1.89,1.71-2.84,3.8-2.84,6.26,0,1.2.23,2.31.7,3.34.46,1.02,1.12,1.88,1.98,2.58s1.91,1.26,3.16,1.68c1.25.42,2.64.66,4.17.71l.35-1.8ZM284.43,527.18l-.62,1.97c.61-.27,1.3-.41,2.05-.41h5.3l.32-1.56h-7.05ZM291.82,504.54l.26.28c.36.4.63.81.81,1.24s.27.9.28,1.42l.03.72c.02.53.19.8.51.8.43,0,.65-.34.65-1.02,0-.74-.23-1.43-.69-2.05-.46-.63-1.07-1.09-1.85-1.38Z" style="fill: none; stroke: red; stroke-miterlimit: 4;"/>
    <path d="M257.92,507.87h-5.24c-1.33,0-2.41.24-3.23.71-.83.47-1.55,1.25-2.19,2.34h-.5l1.45-6.9h11.85v.76c-.44,1.21-.97,2.39-1.59,3.51-.61,1.13-1.51,2.57-2.69,4.33-.5.77-.93,1.42-1.28,1.94-.35.53-.62.93-.81,1.22-1.02,1.59-1.74,2.97-2.18,4.14-.44,1.18-.66,2.37-.66,3.57,0,1.02.15,1.96.45,2.82s.71,1.55,1.23,2.04c.52.49,1.09.73,1.69.73,1.26,0,1.91-.97,1.96-2.9l.03-.98c.04-1.51.52-2.27,1.43-2.27.44,0,.81.19,1.1.58s.44.9.44,1.51c0,.88-.26,1.69-.77,2.43-.51.74-1.22,1.32-2.11,1.76s-1.86.65-2.91.65c-1.16,0-2.22-.29-3.18-.86-.96-.57-1.71-1.36-2.25-2.37-.54-1.01-.81-2.14-.81-3.39,0-.89.13-1.73.4-2.52s.71-1.62,1.33-2.49c.62-.87,1.43-1.82,2.44-2.83l2.45-2.49c1.87-1.88,3.25-3.57,4.12-5.05ZM255.14,512.64c-1.24,1.38-2.39,2.75-3.46,4.13-1.14,1.47-1.92,2.7-2.36,3.66-.43.97-.65,1.98-.65,3.05,0,.99.16,1.87.48,2.65.32.77.77,1.42,1.37,1.92.59.51,1.28.82,2.07.95-.74-.52-1.31-1.25-1.7-2.18s-.58-2.04-.58-3.32c0-1,.15-2,.44-2.97.29-.98.75-2.03,1.37-3.16.89-1.57,1.89-3.15,3.02-4.72ZM249.34,504.95l-.53,2.47c.83-.61,1.9-.91,3.23-.91h6.7c.25-.56.47-1.08.67-1.56h-10.07ZM256.47,528.63c1.46-1,2.19-2.22,2.19-3.64,0-.32-.06-.58-.17-.79-.11-.2-.26-.31-.44-.31-.36,0-.54.33-.54,1,0,.93-.08,1.66-.23,2.18-.15.53-.42,1.04-.82,1.55Z" style="fill: none; stroke: red; stroke-miterlimit: 4;"/>
    <path d="M241.33,517.96c-.74.73-1.47,1.26-2.18,1.58s-1.48.48-2.32.48c-.97,0-1.85-.19-2.67-.56-.81-.37-1.52-.91-2.12-1.62s-1.07-1.53-1.4-2.47c-.33-.94-.49-2-.49-3.16,0-1.25.17-2.4.51-3.46.34-1.05.84-1.99,1.48-2.8s1.4-1.44,2.28-1.89c.88-.45,1.8-.67,2.78-.67,1.07,0,2.07.27,3,.8.94.53,1.76,1.31,2.46,2.32.82,1.17,1.42,2.5,1.82,4.01.4,1.51.6,3.23.6,5.15,0,2.04-.23,3.94-.68,5.7-.45,1.75-1.09,3.27-1.91,4.56-.82,1.29-1.79,2.28-2.91,2.97-1.12.69-2.35,1.04-3.68,1.04-.87,0-1.66-.18-2.39-.53-.73-.35-1.29-.83-1.7-1.44-.41-.61-.61-1.28-.61-2.01,0-.58.14-1.06.42-1.42s.65-.55,1.11-.55c.4,0,.73.16.99.47.26.32.41.76.46,1.33l.06.8c.06.93.23,1.61.5,2.04.27.43.66.64,1.18.64.64,0,1.28-.32,1.92-.95.63-.63,1.2-1.52,1.71-2.66.87-1.97,1.46-4.55,1.78-7.73ZM236.57,519.32c-1.19-.83-2.04-1.86-2.55-3.1s-.77-2.85-.77-4.83c0-1.87.22-3.4.65-4.57.3-.82.86-1.6,1.66-2.36-.76.4-1.44.98-2.04,1.75-.59.77-1.05,1.66-1.36,2.69s-.47,2.1-.47,3.24c0,3.98,1.63,6.38,4.88,7.19ZM234.4,528.94c-.23-.47-.4-.93-.5-1.38-.1-.45-.16-.99-.17-1.64-.03-.63-.23-.95-.59-.95s-.56.33-.56,1c0,1.23.6,2.21,1.81,2.96ZM241.33,517.22c.07-.92.11-1.81.11-2.68,0-1.9-.12-3.53-.36-4.92-.24-1.38-.6-2.53-1.09-3.45-.33-.61-.73-1.08-1.2-1.42-.47-.34-.95-.51-1.46-.51-.55,0-1.05.16-1.48.48-.43.32-.81.8-1.12,1.42s-.56,1.36-.72,2.21c-.16.85-.24,1.79-.24,2.82,0,1.52.18,2.89.54,4.11.36,1.21.86,2.15,1.51,2.82.65.66,1.39.99,2.23.99.58,0,1.12-.14,1.62-.43s1.05-.77,1.68-1.45ZM238.62,528.91c.94-.46,1.77-1.1,2.49-1.92.73-.82,1.34-1.81,1.85-2.96.51-1.15.9-2.42,1.17-3.83.27-1.41.41-2.94.41-4.6s-.15-3.2-.46-4.54c-.31-1.34-.77-2.53-1.38-3.56-.61-1.03-1.42-1.96-2.42-2.79.47.61.89,1.24,1.24,1.91.35.66.63,1.39.85,2.19.21.8.36,1.66.45,2.59.09.93.13,2.01.13,3.23,0,3.89-.52,7.22-1.56,10-.36.97-.75,1.77-1.16,2.4-.41.63-.94,1.26-1.61,1.88Z" style="fill: none; stroke: red; stroke-miterlimit: 4;"/>
    <path d="M206.63,507.87h-5.24c-1.33,0-2.41.24-3.23.71s-1.56,1.25-2.19,2.34h-.5l1.45-6.9h11.85l.02.76c-.45,1.21-.99,2.39-1.6,3.51-.61,1.13-1.51,2.57-2.69,4.33-.5.77-.93,1.42-1.28,1.94-.35.53-.62.93-.81,1.22-1.02,1.59-1.74,2.97-2.18,4.14-.44,1.18-.66,2.37-.66,3.57,0,1.02.15,1.96.45,2.82s.71,1.55,1.23,2.04c.52.49,1.09.73,1.69.73,1.26,0,1.91-.97,1.96-2.9l.03-.98c.04-1.51.52-2.27,1.43-2.27.44,0,.81.19,1.1.58s.44.9.44,1.51c0,.88-.26,1.69-.77,2.43-.51.74-1.22,1.32-2.11,1.76-.89.43-1.86.65-2.91.65-1.16,0-2.22-.29-3.18-.86-.96-.57-1.71-1.36-2.25-2.37-.54-1.01-.81-2.14-.81-3.39,0-.89.13-1.73.4-2.52.27-.79.71-1.62,1.33-2.49.62-.87,1.43-1.82,2.44-2.83l2.45-2.49c1.87-1.88,3.25-3.57,4.12-5.05ZM203.85,512.64c-1.24,1.38-2.39,2.75-3.46,4.13-1.14,1.47-1.92,2.7-2.35,3.66-.43.97-.65,1.98-.65,3.05,0,.99.16,1.87.48,2.65.32.77.77,1.42,1.37,1.92.59.51,1.28.82,2.07.95-.75-.52-1.31-1.25-1.7-2.18-.39-.94-.58-2.04-.58-3.32,0-1,.15-2,.44-2.97.29-.98.75-2.03,1.37-3.16.89-1.57,1.89-3.15,3.02-4.72ZM198.05,504.95l-.53,2.47c.83-.61,1.9-.91,3.23-.91h6.7c.25-.56.47-1.08.66-1.56h-10.07ZM205.18,528.63c1.46-1,2.19-2.22,2.19-3.64,0-.32-.06-.58-.17-.79-.11-.2-.26-.31-.44-.31-.36,0-.54.33-.54,1,0,.93-.08,1.66-.23,2.18-.15.53-.42,1.04-.81,1.55Z" style="fill: none; stroke: red; stroke-miterlimit: 4;"/>
    <path d="M186.97,504.02h4.09c-.07,1.92-.25,3.7-.53,5.33-.28,1.63-.67,3.21-1.16,4.75-.36,1.13-.75,2.17-1.16,3.14-.41.97-.9,1.97-1.46,3.01-.69,1.25-1.67,2.89-2.93,4.92l-.36.6h5.71c.83,0,1.54-.09,2.14-.28s1.12-.48,1.56-.89c.44-.41.81-.94,1.11-1.58h.53l-1.81,6.38h-11.46v-.87c1.97-3.57,3.37-6.65,4.18-9.24.28-.87.53-1.81.75-2.83s.38-2.1.5-3.22c.12-1.13.2-2.38.24-3.75.05-1.38.07-2.91.07-4.59v-.85ZM182.41,528.72h9.84l.79-2.6c-.43.42-.88.71-1.34.86s-1.05.23-1.79.23h-6.69l-.81,1.51ZM188.57,504.97c-.02,1.96-.15,3.88-.39,5.77s-.58,3.7-1.03,5.44c-.44,1.73-1.01,3.46-1.69,5.17.99-1.61,1.84-3.33,2.57-5.17.73-1.83,1.3-3.69,1.71-5.58.41-1.88.64-3.76.7-5.63h-1.87Z" style="fill: none; stroke: red; stroke-miterlimit: 4;"/>
  </g>
</svg>